<svg width="190" height="38" viewBox="0 0 190 38" fill="none" xmlns="http://www.w3.org/2000/svg">
<path d="M9.88 31.52C8.06667 31.52 4.88 31.3467 0.32 31V2.92C4.85333 2.54667 8.12 2.36 10.12 2.36C12.1467 2.36 13.8533 2.62667 15.24 3.16C16.6533 3.66666 17.7733 4.34666 18.6 5.2C19.4267 6.02667 20.0933 7.08 20.6 8.36C21.48 10.4933 21.92 13.24 21.92 16.6C21.92 21.9067 20.8667 25.72 18.76 28.04C16.6533 30.36 13.6933 31.52 9.88 31.52ZM6.56 25.92C7.68 26.0533 8.96 26.12 10.4 26.12C11.84 26.12 12.84 25.8667 13.4 25.36C14.6267 24.3467 15.24 21.48 15.24 16.76C15.24 12.04 14.6667 9.25333 13.52 8.4C12.9333 7.94667 11.9067 7.72 10.44 7.72L6.56 7.96V25.92ZM36.7141 31.52C29.4607 31.52 25.8341 27.4267 25.8341 19.24C25.8341 11.0533 29.4341 6.96 36.6341 6.96C39.8607 6.96 42.2874 7.82667 43.9141 9.56C45.5407 11.2667 46.3541 14.1067 46.3541 18.08V21.4H32.2741C32.2741 23.64 32.6874 25.12 33.5141 25.84C34.0741 26.3467 34.8607 26.6 35.8741 26.6C37.7407 26.6 40.1141 26.1733 42.9941 25.32L44.3941 24.88L45.9141 29.36C44.7141 29.92 43.2207 30.4267 41.4341 30.88C39.6474 31.3067 38.0741 31.52 36.7141 31.52ZM39.3141 12.72C38.8341 12.1333 37.8741 11.84 36.4341 11.84C34.9941 11.84 33.9674 12.1867 33.3541 12.88C32.7407 13.5733 32.3941 14.92 32.3141 16.92L40.0341 16.76C39.9807 14.6533 39.7407 13.3067 39.3141 12.72ZM57.2147 31H51.0147V0.559999H57.2147V31ZM69.0441 31.52C67.0707 31.52 65.4307 30.84 64.1241 29.48C62.8441 28.12 62.2041 26.1467 62.2041 23.56C62.2041 20.9733 63.1107 19.0933 64.9241 17.92C66.7641 16.7467 69.4307 16.16 72.9241 16.16H75.9241C75.9241 14.3733 75.7507 13.2267 75.4041 12.72C75.0574 12.1867 74.2707 11.92 73.0441 11.92C71.8441 11.92 70.4974 12.0533 69.0041 12.32C67.5374 12.5867 65.8974 12.9867 64.0841 13.52L62.8041 9.04C63.8974 8.53333 65.4574 8.06667 67.4841 7.64C69.5374 7.18667 71.3641 6.96 72.9641 6.96C76.2441 6.96 78.5907 7.72 80.0041 9.24C81.4174 10.7333 82.1241 12.92 82.1241 15.8V31H78.2041L77.4041 28.4H77.1641C76.8441 28.64 76.4174 28.9333 75.8841 29.28C75.3774 29.6267 74.4041 30.0933 72.9641 30.68C71.5241 31.24 70.2174 31.52 69.0441 31.52ZM75.9241 20.76C74.9907 20.6267 73.7374 20.56 72.1641 20.56C70.6174 20.56 69.6174 20.76 69.1641 21.16C68.7374 21.56 68.5241 22.32 68.5241 23.44C68.5241 24.56 68.6974 25.3467 69.0441 25.8C69.4174 26.2267 69.9774 26.44 70.7241 26.44C72.1107 26.44 73.5774 26.0667 75.1241 25.32L75.9241 24.92V20.76ZM89.7269 37.64L93.2069 28.96L84.8869 7.48H91.7669L95.8869 23.2H96.1269L100.327 7.48H106.687L98.4069 29.76L96.1669 37.64H89.7269ZM117.768 7.88C116.888 7.88 116.208 8.05333 115.728 8.4C115.248 8.72 115.008 9.28 115.008 10.08C115.008 10.88 115.342 11.5467 116.008 12.08C116.702 12.5867 117.462 13.04 118.288 13.44C119.115 13.8133 119.848 14.1467 120.488 14.44C121.155 14.7067 121.662 14.9333 122.008 15.12C122.355 15.28 122.822 15.52 123.408 15.84C124.022 16.16 124.488 16.4667 124.808 16.76C125.155 17.0267 125.542 17.3867 125.968 17.84C126.422 18.2667 126.755 18.7067 126.968 19.16C127.528 20.3067 127.808 21.5333 127.808 22.84C127.808 25.4267 126.875 27.52 125.008 29.12C123.168 30.72 120.755 31.52 117.768 31.52C116.248 31.52 114.675 31.32 113.048 30.92C111.422 30.4933 110.168 30.0667 109.288 29.64L107.968 29.04C108.022 28.8267 108.115 28.5467 108.248 28.2C108.408 27.72 108.835 26.3333 109.528 24.04C112.808 25.3467 115.822 26 118.568 26C119.342 26 120.008 25.8267 120.568 25.48C121.128 25.1333 121.408 24.3333 121.408 23.08C121.408 22.4933 121.248 22.0533 120.928 21.76C120.608 21.44 120.342 21.2 120.128 21.04C119.915 20.8533 119.608 20.6533 119.208 20.44C118.808 20.2267 118.462 20.0533 118.168 19.92C117.555 19.6267 116.435 19.1067 114.808 18.36C113.208 17.5867 112.048 16.9067 111.328 16.32C109.488 14.88 108.568 12.9333 108.568 10.48C108.568 8.02667 109.422 6.06667 111.128 4.6C112.862 3.10667 115.315 2.36 118.488 2.36C119.635 2.36 120.902 2.46667 122.288 2.68C123.675 2.89333 125.182 3.22667 126.808 3.68L125.808 8.8C122.608 8.18667 119.928 7.88 117.768 7.88ZM138.341 31.52C136.368 31.52 134.728 30.84 133.421 29.48C132.141 28.12 131.501 26.1467 131.501 23.56C131.501 20.9733 132.408 19.0933 134.221 17.92C136.061 16.7467 138.728 16.16 142.221 16.16H145.221C145.221 14.3733 145.048 13.2267 144.701 12.72C144.354 12.1867 143.568 11.92 142.341 11.92C141.141 11.92 139.794 12.0533 138.301 12.32C136.834 12.5867 135.194 12.9867 133.381 13.52L132.101 9.04C133.194 8.53333 134.754 8.06667 136.781 7.64C138.834 7.18667 140.661 6.96 142.261 6.96C145.541 6.96 147.888 7.72 149.301 9.24C150.714 10.7333 151.421 12.92 151.421 15.8V31H147.501L146.701 28.4H146.461C146.141 28.64 145.714 28.9333 145.181 29.28C144.674 29.6267 143.701 30.0933 142.261 30.68C140.821 31.24 139.514 31.52 138.341 31.52ZM145.221 20.76C144.288 20.6267 143.034 20.56 141.461 20.56C139.914 20.56 138.914 20.76 138.461 21.16C138.034 21.56 137.821 22.32 137.821 23.44C137.821 24.56 137.994 25.3467 138.341 25.8C138.714 26.2267 139.274 26.44 140.021 26.44C141.408 26.44 142.874 26.0667 144.421 25.32L145.221 24.92V20.76ZM163.704 31H157.504V7.48H161.464L162.184 9.84H162.424C163.41 9.25333 164.184 8.81333 164.744 8.52C165.304 8.2 166.157 7.85333 167.304 7.48C168.45 7.08 169.53 6.88 170.544 6.88C172.97 6.88 174.69 7.89333 175.704 9.92C176.664 9.30667 177.45 8.82667 178.064 8.48C178.677 8.13333 179.517 7.78667 180.584 7.44C181.65 7.06666 182.677 6.88 183.664 6.88C185.957 6.88 187.57 7.65333 188.504 9.2C189.464 10.72 189.944 12.8533 189.944 15.6V31H183.664V16.68C183.664 14.6267 183.477 13.3867 183.104 12.96C182.757 12.5067 182.197 12.28 181.424 12.28C179.957 12.28 178.384 12.8533 176.704 14C176.757 14.8533 176.784 15.52 176.784 16V31H170.584V16.68C170.584 14.6 170.41 13.3467 170.064 12.92C169.717 12.4933 169.184 12.28 168.464 12.28C167.744 12.28 166.93 12.4533 166.024 12.8C165.117 13.12 164.344 13.5067 163.704 13.96V31Z" fill="#F7F7F7"/>
</svg>
