<svg width="115" height="23" viewBox="0 0 115 23" fill="none" xmlns="http://www.w3.org/2000/svg">
<path d="M6.728 19.312C5.64 19.312 3.728 19.208 0.992 19V2.152C3.712 1.928 5.672 1.816 6.872 1.816C8.088 1.816 9.112 1.976 9.944 2.296C10.792 2.6 11.464 3.008 11.96 3.52C12.456 4.016 12.856 4.648 13.16 5.416C13.688 6.696 13.952 8.344 13.952 10.36C13.952 13.544 13.32 15.832 12.056 17.224C10.792 18.616 9.016 19.312 6.728 19.312ZM4.736 15.952C5.408 16.032 6.176 16.072 7.04 16.072C7.904 16.072 8.504 15.92 8.84 15.616C9.576 15.008 9.944 13.288 9.944 10.456C9.944 7.624 9.6 5.952 8.912 5.44C8.56 5.168 7.944 5.032 7.064 5.032L4.736 5.176V15.952ZM22.8284 19.312C18.4764 19.312 16.3004 16.856 16.3004 11.944C16.3004 7.032 18.4604 4.576 22.7804 4.576C24.7164 4.576 26.1724 5.096 27.1484 6.136C28.1244 7.16 28.6124 8.864 28.6124 11.248V13.24H20.1644C20.1644 14.584 20.4124 15.472 20.9084 15.904C21.2444 16.208 21.7164 16.36 22.3244 16.36C23.4444 16.36 24.8684 16.104 26.5964 15.592L27.4364 15.328L28.3484 18.016C27.6284 18.352 26.7324 18.656 25.6604 18.928C24.5884 19.184 23.6444 19.312 22.8284 19.312ZM24.3884 8.032C24.1004 7.68 23.5244 7.504 22.6604 7.504C21.7964 7.504 21.1804 7.712 20.8124 8.128C20.4444 8.544 20.2364 9.352 20.1884 10.552L24.8204 10.456C24.7884 9.192 24.6444 8.384 24.3884 8.032ZM35.1288 19H31.4088V0.735999H35.1288V19ZM42.2264 19.312C41.0424 19.312 40.0584 18.904 39.2744 18.088C38.5064 17.272 38.1224 16.088 38.1224 14.536C38.1224 12.984 38.6664 11.856 39.7544 11.152C40.8584 10.448 42.4584 10.096 44.5544 10.096H46.3544C46.3544 9.024 46.2504 8.336 46.0424 8.032C45.8344 7.712 45.3624 7.552 44.6264 7.552C43.9064 7.552 43.0984 7.632 42.2024 7.792C41.3224 7.952 40.3384 8.192 39.2504 8.512L38.4824 5.824C39.1384 5.52 40.0744 5.24 41.2904 4.984C42.5224 4.712 43.6184 4.576 44.5784 4.576C46.5464 4.576 47.9544 5.032 48.8024 5.944C49.6504 6.84 50.0744 8.152 50.0744 9.88V19H47.7224L47.2424 17.44H47.0984C46.9064 17.584 46.6504 17.76 46.3304 17.968C46.0264 18.176 45.4424 18.456 44.5784 18.808C43.7144 19.144 42.9304 19.312 42.2264 19.312ZM46.3544 12.856C45.7944 12.776 45.0424 12.736 44.0984 12.736C43.1704 12.736 42.5704 12.856 42.2984 13.096C42.0424 13.336 41.9144 13.792 41.9144 14.464C41.9144 15.136 42.0184 15.608 42.2264 15.88C42.4504 16.136 42.7864 16.264 43.2344 16.264C44.0664 16.264 44.9464 16.04 45.8744 15.592L46.3544 15.352V12.856ZM54.6361 22.984L56.7241 17.776L51.7321 4.888H55.8601L58.3321 14.32H58.4761L60.9961 4.888H64.8121L59.8441 18.256L58.5001 22.984H54.6361ZM71.4611 5.128C70.9331 5.128 70.5251 5.232 70.2371 5.44C69.9491 5.632 69.8051 5.968 69.8051 6.448C69.8051 6.928 70.0051 7.328 70.4051 7.648C70.8211 7.952 71.2771 8.224 71.7731 8.464C72.2691 8.688 72.7091 8.888 73.0931 9.064C73.4931 9.224 73.7971 9.36 74.0051 9.472C74.2131 9.568 74.4931 9.712 74.8451 9.904C75.2131 10.096 75.4931 10.28 75.6851 10.456C75.8931 10.616 76.1251 10.832 76.3811 11.104C76.6531 11.36 76.8531 11.624 76.9811 11.896C77.3171 12.584 77.4851 13.32 77.4851 14.104C77.4851 15.656 76.9251 16.912 75.8051 17.872C74.7011 18.832 73.2531 19.312 71.4611 19.312C70.5491 19.312 69.6051 19.192 68.6291 18.952C67.6531 18.696 66.9011 18.44 66.3731 18.184L65.5811 17.824C65.6131 17.696 65.6691 17.528 65.7491 17.32C65.8451 17.032 66.1011 16.2 66.5171 14.824C68.4851 15.608 70.2931 16 71.9411 16C72.4051 16 72.8051 15.896 73.1411 15.688C73.4771 15.48 73.6451 15 73.6451 14.248C73.6451 13.896 73.5491 13.632 73.3571 13.456C73.1651 13.264 73.0051 13.12 72.8771 13.024C72.7491 12.912 72.5651 12.792 72.3251 12.664C72.0851 12.536 71.8771 12.432 71.7011 12.352C71.3331 12.176 70.6611 11.864 69.6851 11.416C68.7251 10.952 68.0291 10.544 67.5971 10.192C66.4931 9.328 65.9411 8.16 65.9411 6.688C65.9411 5.216 66.4531 4.04 67.4771 3.16C68.5171 2.264 69.9891 1.816 71.8931 1.816C72.5811 1.816 73.3411 1.88 74.1731 2.008C75.0051 2.136 75.9091 2.336 76.8851 2.608L76.2851 5.68C74.3651 5.312 72.7571 5.128 71.4611 5.128ZM83.8046 19.312C82.6206 19.312 81.6366 18.904 80.8526 18.088C80.0846 17.272 79.7006 16.088 79.7006 14.536C79.7006 12.984 80.2446 11.856 81.3326 11.152C82.4366 10.448 84.0366 10.096 86.1326 10.096H87.9326C87.9326 9.024 87.8286 8.336 87.6206 8.032C87.4126 7.712 86.9406 7.552 86.2046 7.552C85.4846 7.552 84.6766 7.632 83.7806 7.792C82.9006 7.952 81.9166 8.192 80.8286 8.512L80.0606 5.824C80.7166 5.52 81.6526 5.24 82.8686 4.984C84.1006 4.712 85.1966 4.576 86.1566 4.576C88.1246 4.576 89.5326 5.032 90.3806 5.944C91.2286 6.84 91.6526 8.152 91.6526 9.88V19H89.3006L88.8206 17.44H88.6766C88.4846 17.584 88.2286 17.76 87.9086 17.968C87.6046 18.176 87.0206 18.456 86.1566 18.808C85.2926 19.144 84.5086 19.312 83.8046 19.312ZM87.9326 12.856C87.3726 12.776 86.6206 12.736 85.6766 12.736C84.7486 12.736 84.1486 12.856 83.8766 13.096C83.6206 13.336 83.4926 13.792 83.4926 14.464C83.4926 15.136 83.5966 15.608 83.8046 15.88C84.0286 16.136 84.3646 16.264 84.8126 16.264C85.6446 16.264 86.5246 16.04 87.4526 15.592L87.9326 15.352V12.856ZM99.0223 19H95.3023V4.888H97.6783L98.1103 6.304H98.2543C98.8463 5.952 99.3103 5.688 99.6463 5.512C99.9823 5.32 100.494 5.112 101.182 4.888C101.87 4.648 102.518 4.528 103.126 4.528C104.582 4.528 105.614 5.136 106.222 6.352C106.798 5.984 107.27 5.696 107.638 5.488C108.006 5.28 108.51 5.072 109.15 4.864C109.79 4.64 110.406 4.528 110.998 4.528C112.374 4.528 113.342 4.992 113.902 5.92C114.478 6.832 114.766 8.112 114.766 9.76V19H110.998V10.408C110.998 9.176 110.886 8.432 110.662 8.176C110.454 7.904 110.118 7.768 109.654 7.768C108.774 7.768 107.83 8.112 106.822 8.8C106.854 9.312 106.87 9.712 106.87 10V19H103.15V10.408C103.15 9.16 103.046 8.408 102.838 8.152C102.63 7.896 102.31 7.768 101.878 7.768C101.446 7.768 100.958 7.872 100.414 8.08C99.8703 8.272 99.4063 8.504 99.0223 8.776V19Z" fill="#F7F7F7"/>
</svg>
