<?xml version="1.0" standalone="no"?>
<!DOCTYPE svg PUBLIC "-//W3C//DTD SVG 20010904//EN"
 "http://www.w3.org/TR/2001/REC-SVG-20010904/DTD/svg10.dtd">
<svg version="1.0" xmlns="http://www.w3.org/2000/svg"
 width="260.000000pt" height="260.000000pt" viewBox="0 0 260.000000 260.000000"
 preserveAspectRatio="xMidYMid meet">
<metadata>
Created by potrace 1.11, written by Peter Selinger 2001-2013
</metadata>
<g transform="translate(0.000000,260.000000) scale(0.100000,-0.100000)"
fill="#000000" stroke="none">
<path d="M700 1231 l0 -781 253 -1 c417 -1 439 2 587 73 116 55 237 176 298
295 69 134 85 209 85 408 0 195 -15 269 -78 396 -73 147 -174 247 -316 314
-138 65 -161 68 -511 73 l-318 4 0 -781z m595 474 c120 -31 189 -108 225 -249
25 -97 28 -333 6 -437 -26 -120 -90 -215 -172 -254 -74 -35 -267 -49 -278 -19
-8 21 -8 959 1 967 12 13 159 7 218 -8z"/>
</g>
</svg>
